<svg xmlns="http://www.w3.org/2000/svg" width="137" height="124" viewBox="0 0 137 124" fill="none">
<path d="M97.0418 46.5098C109.457 46.5723 116.181 47.0707 120.568 51.0407C125.583 55.5806 125.583 62.8873 125.583 77.5007V82.6674C125.583 97.2808 125.583 104.588 120.568 109.127C115.552 113.667 107.479 113.667 91.3334 113.667H45.6667C29.5211 113.667 21.4483 113.667 16.4325 109.127C11.4167 104.588 11.4167 97.2808 11.4167 82.6674V77.5007C11.4167 62.8873 11.4167 55.5806 16.4325 51.0406C20.8187 47.0707 27.5426 46.5723 39.9584 46.5098" stroke="#EEEEEE" stroke-width="1.5" stroke-linecap="round"/>
<path d="M68.5 77.4997V10.333M68.5 10.333L85.625 28.4163M68.5 10.333L51.375 28.4163" stroke="#EEEEEE" stroke-width="1.5" stroke-linecap="round" stroke-linejoin="round"/>
</svg>