<svg width="23" height="23" viewBox="0 0 23 23" fill="none" xmlns="http://www.w3.org/2000/svg">
<circle cx="11.5" cy="11.5" r="11.5" fill="url(#paint0_linear_733_9382)"/>
<path d="M10.9999 12.7147C11.8615 12.7147 12.5599 12.0163 12.5599 11.1547C12.5599 10.2932 11.8615 9.59473 10.9999 9.59473C10.1384 9.59473 9.43994 10.2932 9.43994 11.1547C9.43994 12.0163 10.1384 12.7147 10.9999 12.7147Z" stroke="white"/>
<path d="M6.8101 10.245C7.7951 5.915 14.2101 5.92 15.1901 10.25C15.7651 12.79 14.1851 14.94 12.8001 16.27C11.7951 17.24 10.2051 17.24 9.1951 16.27C7.8151 14.94 6.2351 12.785 6.8101 10.245Z" stroke="white"/>
<defs>
<linearGradient id="paint0_linear_733_9382" x1="11.5" y1="0" x2="11.5" y2="23" gradientUnits="userSpaceOnUse">
<stop stop-color="#5447AA" stop-opacity="0.93"/>
<stop offset="1" stop-color="#2B2D31" stop-opacity="0"/>
</linearGradient>
</defs>
</svg>
