<svg width="16" height="14" viewBox="0 0 16 14" fill="none" xmlns="http://www.w3.org/2000/svg">
<path d="M8.00002 5.83317C9.28868 5.83317 10.3334 4.7885 10.3334 3.49984C10.3334 2.21117 9.28868 1.1665 8.00002 1.1665C6.71136 1.1665 5.66669 2.21117 5.66669 3.49984C5.66669 4.7885 6.71136 5.83317 8.00002 5.83317Z" stroke="#F9F9F9" stroke-width="1.5"/>
<path d="M11.5 5.25016C12.4665 5.25016 13.25 4.59724 13.25 3.79183C13.25 2.98642 12.4665 2.3335 11.5 2.3335" stroke="#F9F9F9" stroke-width="1.5" stroke-linecap="round"/>
<path d="M4.5 5.25016C3.5335 5.25016 2.75 4.59724 2.75 3.79183C2.75 2.98642 3.5335 2.3335 4.5 2.3335" stroke="#F9F9F9" stroke-width="1.5" stroke-linecap="round"/>
<path d="M8 12.2502C9.933 12.2502 11.5 11.2055 11.5 9.91683C11.5 8.62816 9.933 7.5835 8 7.5835C6.067 7.5835 4.5 8.62816 4.5 9.91683C4.5 11.2055 6.067 12.2502 8 12.2502Z" stroke="#F9F9F9" stroke-width="1.5"/>
<path d="M12.6667 11.0832C13.69 10.8588 14.4167 10.2905 14.4167 9.62484C14.4167 8.9592 13.69 8.39091 12.6667 8.1665" stroke="#F9F9F9" stroke-width="1.5" stroke-linecap="round"/>
<path d="M3.33331 11.0832C2.31 10.8588 1.58331 10.2905 1.58331 9.62484C1.58331 8.9592 2.31 8.39091 3.33331 8.1665" stroke="#F9F9F9" stroke-width="1.5" stroke-linecap="round"/>
</svg>
