<svg width="23" height="23" viewBox="0 0 23 23" fill="none" xmlns="http://www.w3.org/2000/svg">
<circle cx="11.5" cy="11.5" r="11.5" fill="#2B2D31"/>
<path d="M15.985 15.165C15.985 15.345 15.945 15.53 15.86 15.71C15.775 15.89 15.665 16.06 15.52 16.22C15.275 16.49 15.005 16.685 14.7 16.81C14.4 16.935 14.075 17 13.725 17C13.215 17 12.67 16.88 12.095 16.635C11.52 16.39 10.945 16.06 10.375 15.645C9.8 15.225 9.255 14.76 8.735 14.245C8.22 13.725 7.755 13.18 7.34 12.61C6.93 12.04 6.6 11.47 6.36 10.905C6.12 10.335 6 9.79 6 9.27C6 8.93 6.06 8.605 6.18 8.305C6.3 8 6.49 7.72 6.755 7.47C7.075 7.155 7.425 7 7.795 7C7.935 7 8.075 7.03 8.2 7.09C8.33 7.15 8.445 7.24 8.535 7.37L9.695 9.005C9.785 9.13 9.85 9.245 9.895 9.355C9.94 9.46 9.965 9.565 9.965 9.66C9.965 9.78 9.93 9.9 9.86 10.015C9.795 10.13 9.7 10.25 9.58 10.37L9.2 10.765C9.145 10.82 9.12 10.885 9.12 10.965C9.12 11.005 9.125 11.04 9.135 11.08C9.15 11.12 9.165 11.15 9.175 11.18C9.265 11.345 9.42 11.56 9.64 11.82C9.865 12.08 10.105 12.345 10.365 12.61C10.635 12.875 10.895 13.12 11.16 13.345C11.42 13.565 11.635 13.715 11.805 13.805C11.83 13.815 11.86 13.83 11.895 13.845C11.935 13.86 11.975 13.865 12.02 13.865C12.105 13.865 12.17 13.835 12.225 13.78L12.605 13.405C12.73 13.28 12.85 13.185 12.965 13.125C13.08 13.055 13.195 13.02 13.32 13.02C13.415 13.02 13.515 13.04 13.625 13.085C13.735 13.13 13.85 13.195 13.975 13.28L15.63 14.455C15.76 14.545 15.85 14.65 15.905 14.775C15.955 14.9 15.985 15.025 15.985 15.165Z" stroke="white" stroke-miterlimit="10"/>
</svg>
