<svg width="15" height="15" viewBox="0 0 15 15" fill="none" xmlns="http://www.w3.org/2000/svg">
<path d="M5.625 9.375L9.375 5.625M9.375 5.625H6.5625M9.375 5.625V8.4375" stroke="#F9F9F9" stroke-width="1.5" stroke-linecap="round" stroke-linejoin="round"/>
<path d="M1.25 7.5C1.25 4.55372 1.25 3.08058 2.16529 2.16529C3.08058 1.25 4.55372 1.25 7.5 1.25C10.4463 1.25 11.9194 1.25 12.8347 2.16529C13.75 3.08058 13.75 4.55372 13.75 7.5C13.75 10.4463 13.75 11.9194 12.8347 12.8347C11.9194 13.75 10.4463 13.75 7.5 13.75C4.55372 13.75 3.08058 13.75 2.16529 12.8347C1.25 11.9194 1.25 10.4463 1.25 7.5Z" stroke="#F9F9F9" stroke-width="1.5"/>
</svg>
