<svg width="30" height="30" viewBox="0 0 30 30" fill="none" xmlns="http://www.w3.org/2000/svg">
<path d="M15 12.5C17.7614 12.5 20 10.2614 20 7.5C20 4.73858 17.7614 2.5 15 2.5C12.2386 2.5 10 4.73858 10 7.5C10 10.2614 12.2386 12.5 15 12.5Z" stroke="#F9F9F9" stroke-width="1.5"/>
<path d="M18.75 16.6589C17.592 16.3952 16.3261 16.25 15 16.25C9.47715 16.25 5 18.7684 5 21.875C5 24.9816 5 27.5 15 27.5C22.1092 27.5 24.1644 26.2271 24.7585 24.375" stroke="#F9F9F9" stroke-width="1.5"/>
<path d="M22.5 25C25.2614 25 27.5 22.7614 27.5 20C27.5 17.2386 25.2614 15 22.5 15C19.7386 15 17.5 17.2386 17.5 20C17.5 22.7614 19.7386 25 22.5 25Z" stroke="#F9F9F9" stroke-width="1.5"/>
<path d="M22.5 18.3335V21.6667" stroke="#F9F9F9" stroke-width="1.5" stroke-linecap="round" stroke-linejoin="round"/>
<path d="M20.833 20H24.1664" stroke="#F9F9F9" stroke-width="1.5" stroke-linecap="round" stroke-linejoin="round"/>
</svg>
